<svg xmlns="http://www.w3.org/2000/svg" viewBox="0 0 96.42 96.1"><defs><style>.cls-1{fill:#fff;}</style></defs><title>Asset 1</title><g id="Layer_2" data-name="Layer 2"><g id="Layer_1-2" data-name="Layer 1"><path class="cls-1" d="M93.81,23.7s-3.1-14.8-16.5-20C71,1.2,59.51.1,48.21,0c-11.3.1-22.8,1.2-29.1,3.6-13.4,5.2-16.5,20-16.5,20A101,101,0,0,0,0,48a95.75,95.75,0,0,0,2.6,24.4s3.1,14.8,16.5,20c6.3,2.4,17.8,3.6,29.1,3.7,11.3-.1,22.8-1.2,29.1-3.7,13.4-5.2,16.5-20,16.5-20A101,101,0,0,0,96.41,48,95.45,95.45,0,0,0,93.81,23.7ZM68.61,68.2H27.81V62.1h40.9v6.1Zm0-17.4H27.81V44.7h40.9v6.1Zm0-16.7H27.81V28h40.9v6.1Z"/></g></g></svg>